<svg xmlns="http://www.w3.org/2000/svg" version="1.1" xmlns:xlink="http://www.w3.org/1999/xlink" viewBox="0 0 200 200"><rect width="200" height="200" fill="url('#gradient')"></rect><defs><linearGradient id="gradient" gradientTransform="rotate(327 0.5 0.5)"><stop offset="0%" stop-color="#e095e0"></stop><stop offset="100%" stop-color="#72b2b5"></stop></linearGradient></defs><g><g fill="#8e54a6" transform="matrix(6.170533293160591,0,0,6.170533293160591,-5.054696072096135,145.66428814698645)" stroke="#ffffff" stroke-width="0.2"><path d="M10.46-10.42L10.46-10.42Q10.46-9.38 9.95-8.59Q9.43-7.80 8.54-7.32L8.54-7.32Q9.55-6.83 10.15-5.96Q10.74-5.10 10.74-3.92L10.74-3.92Q10.74-2.01 9.43-0.91Q8.12 0.20 5.81 0.20L5.81 0.20Q3.50 0.20 2.16-0.91Q0.82-2.02 0.82-3.92L0.82-3.92Q0.82-5.06 1.41-5.94Q1.99-6.82 3.07-7.32L3.07-7.32Q2.16-7.80 1.64-8.59Q1.12-9.38 1.12-10.42L1.12-10.42Q1.12-12.28 2.38-13.35Q3.64-14.42 5.78-14.42L5.78-14.42Q7.94-14.42 9.20-13.35Q10.46-12.28 10.46-10.42ZM7.44-4.18L7.44-4.18Q7.44-5.06 6.99-5.53Q6.53-6.01 5.79-6.01Q5.05-6.01 4.59-5.53Q4.13-5.06 4.13-4.18L4.13-4.18Q4.13-3.33 4.59-2.84Q5.06-2.34 5.81-2.34L5.81-2.34Q6.54-2.34 6.99-2.83Q7.44-3.32 7.44-4.18ZM5.78-11.88L5.78-11.88Q5.12-11.88 4.77-11.45Q4.42-11.02 4.42-10.24L4.42-10.24Q4.42-9.48 4.78-9.01Q5.13-8.54 5.81-8.54L5.81-8.54Q6.48-8.54 6.82-9.01Q7.16-9.48 7.16-10.24Q7.16-11.01 6.81-11.45Q6.46-11.88 5.78-11.88ZM12.09-5.36L12.09-5.36Q12.09-7.87 13.17-9.32Q14.26-10.76 16.20-10.76L16.20-10.76Q17.62-10.76 18.58-9.65L18.58-9.65L18.58-15L21.88-15L21.88 0L18.93 0L18.76-1.13Q17.74 0.20 16.18 0.20L16.18 0.20Q14.30 0.20 13.19-1.25Q12.09-2.70 12.09-5.36ZM15.39-5.76L15.38-5.16Q15.38-2.34 17.02-2.34L17.02-2.34Q18.12-2.34 18.58-3.26L18.58-3.26L18.58-7.29Q18.13-8.22 17.04-8.22L17.04-8.22Q15.52-8.22 15.39-5.76L15.39-5.76ZM30.15 0L30.05-1.14Q29.00 0.20 27.23 0.20L27.23 0.20Q25.49 0.20 24.59-0.82Q23.70-1.83 23.70-3.72L23.70-3.72L23.70-10.57L26.99-10.57L26.99-3.70Q26.99-2.34 28.31-2.34L28.31-2.34Q29.44-2.34 29.92-3.15L29.92-3.15L29.92-10.57L33.23-10.57L33.23 0L30.15 0Z"></path></g></g></svg>